<svg width="69" height="69" viewBox="0 0 69 69" fill="none" xmlns="http://www.w3.org/2000/svg">
<path d="M16.8056 23.235C16.8056 22.5685 16.825 21.9958 16.8001 21.4258C16.7753 20.8573 17.0389 20.5344 17.5495 20.3315C20.5993 19.1171 23.7332 18.8784 26.9528 19.458C29.8466 19.9782 32.4824 21.1098 34.9043 22.7534C35.2286 22.9742 35.4453 22.948 35.7544 22.7396C38.8649 20.6448 42.268 19.3903 46.034 19.1847C48.4808 19.0509 50.8364 19.4317 53.1121 20.3398C53.6254 20.5454 53.8655 20.889 53.8393 21.4507C53.8131 22.0192 53.8338 22.5892 53.8338 23.235C54.6839 23.235 55.4581 23.2295 56.2336 23.2364C57.0575 23.2433 57.4039 23.58 57.4039 24.4135C57.408 32.7198 57.408 41.0274 57.4039 49.3336C57.4039 50.2361 57.052 50.5425 56.0404 50.5425C51.4864 50.5452 46.9324 50.5438 42.3784 50.5438C33.2014 50.5438 24.0244 50.5438 14.8474 50.5438C13.4578 50.5438 13.2314 50.3217 13.2314 48.9624C13.2314 40.8852 13.2314 32.8095 13.2314 24.7323C13.2314 23.4779 13.4716 23.2336 14.7053 23.2336C15.3718 23.235 16.0356 23.235 16.8056 23.235ZM36.2485 47.8225C41.2385 44.8293 46.4053 43.746 52.0205 45.3509C52.0205 44.9714 52.0205 44.6968 52.0205 44.4235C52.0205 37.6602 52.0232 30.8982 52.0163 24.1348C52.0163 23.3841 52.244 22.4001 51.8632 21.9447C51.4478 21.4493 50.4473 21.4424 49.7007 21.2271C49.5696 21.1899 49.4302 21.1761 49.295 21.1581C44.7548 20.5247 40.6589 21.7115 36.8639 24.1707C36.4113 24.4646 36.2333 24.7861 36.236 25.3381C36.2554 32.5611 36.2498 39.784 36.2498 47.0069C36.2485 47.236 36.2485 47.4637 36.2485 47.8225ZM34.3937 47.8308C34.3937 47.414 34.3937 47.1394 34.3937 46.8661C34.3937 40.3332 34.3965 33.8003 34.391 27.2674C34.3896 26.3745 34.6615 25.2691 34.2406 24.644C33.7244 23.8809 32.6453 23.4531 31.7497 23.0004C27.8139 21.0132 23.7125 20.3812 19.4028 21.5942C18.8508 21.7501 18.601 21.9709 18.6038 22.6168C18.6314 29.9322 18.6217 37.2462 18.6217 44.5615C18.6217 44.8058 18.6217 45.0487 18.6217 45.3785C21.3514 44.5477 24.0272 44.4125 26.7416 44.8651C29.4451 45.3164 31.9277 46.3417 34.3937 47.8308ZM53.8352 25.0897C53.8352 25.4527 53.8352 25.7287 53.8352 26.0033C53.8352 32.8108 53.8186 39.6184 53.8545 46.4259C53.86 47.3533 53.2045 47.8156 52.4469 47.5023C49.03 46.0892 45.5524 46.1361 42.0652 47.1684C40.9225 47.5065 39.8337 48.0267 38.7187 48.4628C38.7394 48.5194 38.7587 48.576 38.7794 48.6325C44.3642 48.6325 49.9491 48.6325 55.5326 48.6325C55.5326 40.7486 55.5326 32.9226 55.5326 25.0897C54.9557 25.0897 54.4355 25.0897 53.8352 25.0897ZM15.0944 25.0911C15.0944 32.9599 15.0944 40.7872 15.0944 48.6243C20.7166 48.6243 26.2945 48.6243 31.9856 48.6243C28.2569 46.4949 22.9411 45.5965 18.3995 47.4016C17.2886 47.8432 16.8056 47.5051 16.8056 46.31C16.8043 39.5025 16.8056 32.6935 16.8056 25.886C16.8056 25.621 16.8056 25.3575 16.8056 25.0925C16.1695 25.0911 15.6492 25.0911 15.0944 25.0911Z" fill="#31572C"/>
</svg>
