<svg width="35" height="36" viewBox="0 0 35 36" fill="none" xmlns="http://www.w3.org/2000/svg">
<path d="M30.5613 18.2376C30.4773 18.6106 30.2085 18.8446 29.9516 19.0858C28.8631 20.1082 27.6899 21.0168 26.4355 21.8102C25.3057 22.5252 24.1241 23.135 22.8809 23.6189C21.9513 23.981 20.9993 24.259 20.0249 24.4476C18.3694 24.7687 16.7055 24.7846 15.0507 24.4526C14.3451 24.3115 13.6535 24.0991 12.9577 23.9105C12.8303 23.8759 12.7505 23.8896 12.6532 23.9897C11.6144 25.0675 10.57 26.1389 9.52769 27.2117C9.24489 27.5026 8.95509 27.5782 8.66459 27.4363C8.21869 27.2182 8.12489 26.6602 8.47839 26.275C8.72759 26.0035 8.98939 25.7458 9.24629 25.4822C9.90639 24.8033 10.5665 24.125 11.2266 23.4461C11.3505 23.3186 11.347 23.3122 11.1972 23.2322C10.3866 22.7995 9.55989 22.3956 8.77239 21.9218C8.08569 21.5078 7.42279 21.0442 6.78999 20.5474C6.09139 19.9994 5.43759 19.391 4.76909 18.8042C4.60039 18.6559 4.49609 18.4594 4.43939 18.2376C4.43939 18.0785 4.43939 17.9194 4.43939 17.7602C4.52409 17.393 4.79219 17.1648 5.04419 16.9286C6.24399 15.8026 7.54529 14.8176 8.94319 13.9658C9.75939 13.4683 10.6036 13.027 11.4758 12.6475C12.5552 12.1788 13.671 11.8224 14.8225 11.5906C16.2421 11.3047 17.6694 11.2399 19.1072 11.4185C20.1138 11.5438 21.0938 11.785 22.0584 12.0996C22.1662 12.1349 22.2411 12.1241 22.3279 12.0348C23.3912 10.9346 24.4594 9.8388 25.5269 8.74224C25.7404 8.52264 25.9945 8.44128 26.2829 8.54928C26.5524 8.64936 26.7036 8.85816 26.7344 9.15192C26.7561 9.35568 26.6973 9.53856 26.558 9.68472C26.1373 10.1246 25.7138 10.5602 25.2903 10.9966C24.7849 11.5171 24.2781 12.037 23.772 12.5575C23.6446 12.6886 23.6467 12.703 23.8112 12.7778C25.0929 13.3596 26.3018 14.0753 27.4554 14.8903C28.4046 15.5614 29.3062 16.295 30.1441 17.1101C30.3338 17.2951 30.4906 17.496 30.5613 17.7588C30.5613 17.9194 30.5613 18.0785 30.5613 18.2376ZM14.4788 22.1242C14.5453 22.1472 14.5789 22.1616 14.6139 22.171C15.6562 22.4352 16.7118 22.5698 17.7877 22.5432C18.564 22.5238 19.3305 22.4244 20.0865 22.2516C21.2226 21.9917 22.3146 21.5971 23.3674 21.0845C24.9935 20.2932 26.4789 19.2794 27.867 18.1094C27.9559 18.0346 27.9699 17.9842 27.867 17.9064C27.2174 17.4154 26.5839 16.8991 25.9203 16.429C24.7457 15.5981 23.4829 14.9335 22.1536 14.4022C22.0647 14.3669 22.0059 14.3741 21.9366 14.4461C21.5971 14.8003 21.2576 15.1546 20.9076 15.4973C20.7956 15.6074 20.7942 15.6924 20.8761 15.8155C21.1064 16.1633 21.2611 16.547 21.3654 16.9538C21.5628 17.7235 21.5614 18.4946 21.3178 19.247C20.9048 20.5214 20.0802 21.4063 18.8517 21.8765C18.1363 22.1501 17.402 22.1825 16.6551 22.0183C16.1756 21.9132 15.7332 21.7246 15.3251 21.4495C15.2369 21.3898 15.176 21.3919 15.1018 21.4754C14.9681 21.6252 14.8225 21.7649 14.6825 21.9089C14.6195 21.9744 14.5579 22.0406 14.4788 22.1242ZM20.531 13.8766C20.4365 13.8492 20.3875 13.8326 20.3364 13.8211C20.0858 13.7664 19.8359 13.7102 19.5846 13.6606C18.3036 13.4093 17.0184 13.397 15.7318 13.5986C14.3563 13.8146 13.0431 14.2502 11.7831 14.8486C10.0975 15.6492 8.55819 16.691 7.12599 17.9028C7.04199 17.9741 7.02589 18.0202 7.12039 18.095C7.41159 18.3254 7.69229 18.5695 7.98629 18.7963C9.48289 19.9505 11.0908 20.9009 12.8352 21.6029C12.9388 21.6446 13.0004 21.6274 13.0746 21.5489C13.3994 21.2076 13.7291 20.8721 14.0574 20.5344C14.2219 20.3645 14.2219 20.3645 14.1022 20.1629C13.5282 19.1909 13.3553 18.149 13.6115 17.0417C13.888 15.8465 14.5635 14.9429 15.6121 14.3784C16.926 13.6721 18.2504 13.7189 19.5433 14.4778C19.7967 14.6268 19.7953 14.6311 20.0018 14.4209C20.1698 14.251 20.335 14.0789 20.531 13.8766Z" fill="#31572C"/>
</svg>
