<svg width="61" height="61" viewBox="0 0 61 61" fill="none" xmlns="http://www.w3.org/2000/svg">
<path d="M19.5773 15.5429C19.5773 16.9251 19.5871 18.3062 19.5749 19.6884C19.5578 21.6209 18.799 23.1337 17.0861 24.1353C16.8945 24.2476 16.7603 24.6209 16.7603 24.8734C16.742 30.0548 16.7469 35.2373 16.7457 40.4186C16.7457 42.4512 16.764 44.4825 16.7396 46.515C16.7164 48.4585 14.8462 49.5882 13.2699 48.628C12.4672 48.1388 12.1475 47.3788 12.1463 46.4674C12.1439 43.2161 12.1451 39.9648 12.1451 36.7135C12.1451 32.7717 12.1402 28.8287 12.1524 24.8868C12.1536 24.4879 12.0621 24.25 11.6839 24.0292C10.1833 23.1532 9.37934 21.8027 9.35494 20.0752C9.31224 17.0276 9.33908 13.9788 9.34274 10.9313C9.34396 10.3188 9.64774 9.95403 10.1138 9.96135C10.5762 9.96867 10.8458 10.3188 10.847 10.9544C10.8519 13.4127 10.8446 15.8723 10.858 18.3306C10.8592 18.5416 10.9507 18.9198 11.0459 18.9345C11.4167 18.993 11.8084 18.9552 12.1829 18.8991C12.2329 18.8918 12.2585 18.5721 12.2585 18.3964C12.2634 16.0186 12.2622 13.6409 12.2622 11.2643C12.2622 11.1021 12.2659 10.9386 12.2634 10.7763C12.2549 10.2834 12.5111 9.98087 12.9844 9.97599C13.4932 9.96989 13.7396 10.2883 13.7384 10.8056C13.7335 12.7356 13.7372 14.6669 13.7372 16.5969C13.7372 17.1459 13.7762 17.6974 13.7262 18.2415C13.6737 18.81 13.8262 19.0003 14.4387 18.9979C15.0475 18.9955 15.1707 18.81 15.1621 18.2391C15.1304 15.9028 15.1487 13.5652 15.1499 11.2289C15.1499 11.0264 15.0853 10.7739 15.1804 10.6311C15.3525 10.3737 15.6026 10.0419 15.8588 10.0041C16.0784 9.97111 16.4017 10.2664 16.5834 10.4933C16.6981 10.6372 16.6542 10.9215 16.6554 11.1423C16.6591 13.5811 16.681 16.0199 16.642 18.4574C16.6322 19.076 16.9726 18.9747 17.3289 18.9711C17.6778 18.9674 18.0328 19.0857 18.023 18.4635C17.9852 16.0662 18.0072 13.6677 18.0084 11.2704C18.0084 11.1082 17.9962 10.9435 18.0145 10.7836C18.0633 10.3298 18.2878 9.98697 18.766 9.97355C19.2796 9.95891 19.5383 10.3091 19.5676 10.7897C19.5993 11.296 19.5773 11.8048 19.5773 12.3135C19.5785 13.3896 19.5773 14.4656 19.5773 15.5429ZM13.6981 35.2385C13.6981 38.8937 13.6981 42.5488 13.6981 46.2039C13.6981 46.4064 13.6872 46.6126 13.7164 46.8115C13.7787 47.2421 14.0873 47.5093 14.4728 47.419C14.7437 47.3556 14.9926 47.053 15.1695 46.7993C15.2658 46.6614 15.1939 46.4052 15.1939 46.2015C15.1939 38.8717 15.2 31.5407 15.1853 24.2109C15.1841 23.5546 15.3817 23.1557 16.0308 22.9275C17.0141 22.581 17.6107 21.8356 17.923 20.8486C18.0108 20.5693 17.9901 20.4399 17.6522 20.4412C15.5196 20.4497 13.3883 20.4497 11.2557 20.4412C10.9214 20.4399 10.8873 20.568 10.9751 20.8474C11.285 21.8356 11.8828 22.5847 12.8673 22.9251C13.5273 23.1544 13.7103 23.5619 13.7067 24.2122C13.6884 27.888 13.6981 31.5639 13.6981 35.2385Z" fill="#31572C"/>
<path d="M48.3657 28.8225C48.3657 34.6931 48.3669 40.5638 48.3645 46.4344C48.3645 47.7849 47.6972 48.6633 46.4967 48.9208C45.245 49.1879 43.9518 48.2473 43.831 46.9736C43.8066 46.7113 43.809 46.4466 43.809 46.1819C43.8078 42.8098 43.8017 39.4377 43.8163 36.0656C43.8176 35.6496 43.7431 35.3129 43.404 35.053C41.6155 33.6817 41.0457 31.8627 41.1482 29.6435C41.2751 26.8863 41.1275 24.1182 41.1909 21.3573C41.2946 16.7969 43.1441 13.0918 46.8224 10.3444C47.1408 10.1065 47.458 9.81001 47.9204 10.0442C48.3974 10.2858 48.3669 10.7189 48.3669 11.1496C48.3657 17.0409 48.3657 22.9311 48.3657 28.8225ZM46.8566 29.6618C46.8566 24.0974 46.8578 18.5318 46.8541 12.9674C46.8541 12.7917 46.8102 12.616 46.787 12.4403C46.6284 12.5428 46.4442 12.6209 46.3137 12.7526C44.0201 15.0804 42.7684 17.8583 42.7513 21.1499C42.7366 23.8912 42.7342 26.6338 42.7513 29.3751C42.7696 32.5032 42.3889 31.9371 44.785 34.2893C45.1803 34.6773 45.3304 35.0872 45.3279 35.6362C45.3084 39.2108 45.3182 42.7854 45.3182 46.36C45.3182 47.0798 45.5817 47.4531 46.0807 47.4507C46.5821 47.4482 46.8468 47.0749 46.8566 46.3575C46.8578 46.2355 46.8566 46.1135 46.8566 45.9915C46.8566 40.5491 46.8566 35.1055 46.8566 29.6618Z" fill="#31572C"/>
<path d="M18.0107 29.4191C18.0498 23.4984 22.9871 18.5489 28.8822 18.6355C35.0078 18.7245 39.7158 23.5082 39.667 29.5386C39.6182 35.6472 34.8004 40.3198 28.7943 40.2771C22.676 40.2332 18.1108 35.419 18.0107 29.4191ZM38.1285 29.4715C38.1298 24.2877 34.0379 20.241 28.8614 20.1751C23.8314 20.1117 19.554 24.4207 19.5504 29.4557C19.5467 34.5126 23.8362 38.8106 28.8443 38.7521C34.0257 38.6923 38.1273 34.6455 38.1285 29.4715Z" fill="#31572C"/>
<path d="M28.8617 44.0103C26.1069 44.0286 23.5681 43.2917 21.2403 41.8496C20.9756 41.6849 20.7108 41.3116 20.6852 41.0127C20.6328 40.4076 21.2586 40.1917 21.8894 40.4857C23.041 41.0225 24.172 41.6801 25.3859 41.9948C30.6124 43.349 35.0654 41.9509 38.7217 37.9883C38.8864 37.809 39.0169 37.5296 39.2158 37.4674C39.5049 37.3771 39.9417 37.3198 40.132 37.4735C40.3199 37.626 40.3565 38.0713 40.3126 38.3653C40.2784 38.5935 40.0283 38.7972 39.8539 38.9936C36.9259 42.2827 33.2598 43.9517 28.8617 44.0103Z" fill="#31572C"/>
<path d="M39.7246 19.9934C39.505 20.2471 39.3623 20.5607 39.15 20.6192C38.9035 20.6863 38.5339 20.6119 38.3265 20.4545C37.7458 20.0165 37.2602 19.4492 36.6685 19.0296C32.4449 16.0271 27.9528 15.6099 23.2168 17.6973C22.9996 17.7925 22.7227 17.9303 22.5336 17.8681C22.2847 17.7864 22.0029 17.5643 21.9028 17.3313C21.7369 16.9434 21.9675 16.5981 22.3384 16.4456C23.2546 16.0711 24.1635 15.6331 25.1188 15.4049C30.4794 14.1288 35.185 15.3708 39.1695 19.2113C39.3769 19.4102 39.5087 19.6847 39.7246 19.9934Z" fill="#31572C"/>
<path d="M19.8531 39.19C19.847 39.6854 19.625 39.9635 19.159 39.9745C18.6795 39.9855 18.3879 39.7317 18.3708 39.2425C18.355 38.785 18.6002 38.5105 19.0626 38.4922C19.5555 38.4702 19.8007 38.7508 19.8531 39.19Z" fill="#31572C"/>
<path d="M21.8721 29.0287C22.1466 26.3191 23.4532 24.3158 25.9212 23.1141C26.4446 22.8591 26.8802 22.9848 27.0778 23.3935C27.284 23.8205 27.0937 24.1999 26.5264 24.4903C24.5792 25.4882 23.5142 27.0706 23.3727 29.2605C23.3312 29.9132 23.0884 30.2109 22.5858 30.1962C22.0929 30.1828 21.8623 29.8644 21.8708 29.2105C21.8733 29.1507 21.8721 29.0897 21.8721 29.0287Z" fill="#31572C"/>
<path d="M28.7723 23.9742C28.4002 23.9144 28.1099 23.7119 28.0952 23.241C28.0806 22.7835 28.3905 22.4687 28.8492 22.4846C29.3055 22.5004 29.5629 22.742 29.5848 23.2019C29.6056 23.6411 29.2664 23.9791 28.7723 23.9742Z" fill="#31572C"/>
</svg>
