<svg width="229" height="229" viewBox="0 0 229 229" fill="none" xmlns="http://www.w3.org/2000/svg">
<path d="M53.0731 176.499C48.6121 171.558 44.8107 166.153 41.6643 160.295C36.869 151.369 33.5119 141.962 31.8997 131.913C30.9929 126.266 30.4753 120.614 30.6769 114.917C31.0204 105.244 32.7195 95.8273 36.0629 86.6948C39.2918 77.8737 43.6932 69.7488 49.4549 62.3521C53.7051 56.8928 58.4408 51.9372 63.8819 47.5954C68.2695 44.0962 72.8495 40.9314 77.7455 38.2521C85.8063 33.8416 94.3892 30.7868 103.426 29.028C110.277 27.6907 117.211 27.0586 124.159 27.4479C133.351 27.9655 142.365 29.5273 151.071 32.7699C158.042 35.3668 164.637 38.6231 170.784 42.7635C176.289 46.4733 181.441 50.6777 185.934 55.5783C193.386 63.7078 199.45 72.7579 203.636 83.0262C206.274 89.4932 208.23 96.1525 209.329 103.023C210.282 108.967 210.717 115.004 210.378 121.031C209.869 130.017 208.271 138.788 205.198 147.311C202.596 154.529 199.248 161.308 194.893 167.605C194.714 167.862 194.43 168.045 194.197 168.265C191.517 167.165 188.838 166.066 186.159 164.972C179.376 162.196 172.602 159.393 165.801 156.659C163.231 155.624 160.772 154.286 158.042 153.664C153.888 151.52 149.45 150.036 145.186 148.163C144.879 147.957 144.847 147.636 144.783 147.307C144.169 143.913 143.546 140.524 142.919 137.134C141.888 131.593 140.817 126.06 139.837 120.509C139.452 118.32 139.585 118.26 141.87 118.123C142.25 118.1 142.64 118.063 143.006 117.972C148.992 116.451 153.902 110.932 154.561 104.781C154.877 101.841 153.329 97.7922 148.868 97.1968C148.012 97.0823 147.119 97.5952 146.326 96.9998C146.555 96.4365 146.784 95.8777 147.013 95.3144L147.059 95.2136L147.165 95.1724L147.11 95.09C147.206 94.9159 147.302 94.7419 147.398 94.5633L147.508 94.5129L147.462 94.4121C147.604 94.1327 147.746 93.8579 147.888 93.5786C148.113 93.4503 148.177 93.258 148.117 93.0198C148.213 92.7954 148.31 92.571 148.406 92.3419C148.438 92.2549 148.474 92.1679 148.507 92.0809C148.575 91.916 148.644 91.7511 148.713 91.5863L148.809 91.5405L148.74 91.4901C148.841 91.2061 148.946 90.9222 149.047 90.6428C149.34 90.1023 149.624 89.6856 150.389 90.0153C151.007 90.2809 151.658 90.5603 152.377 90.4779C152.789 90.7206 153.242 90.7344 153.7 90.6886C155.01 91.0916 156.32 91.1191 157.63 90.7023C157.983 90.771 158.317 90.7161 158.624 90.5191C158.99 90.6061 159.283 90.4733 159.526 90.2077C160.098 90.0978 160.598 89.8688 160.927 89.3558C162.173 88.2108 161.949 87.0658 160.927 85.9208C160.914 85.8017 160.85 85.733 160.731 85.7193C160.213 84.9544 159.54 84.3956 158.647 84.1254C157.74 83.3193 156.512 83.1636 155.358 82.5682C157.121 81.0706 158.816 79.6553 159.64 77.5348C160.524 75.2631 159.517 73.7014 157.094 73.5868C154.804 73.4815 152.78 74.3288 150.879 75.4738C150.1 75.941 149.789 75.9822 149.395 74.9838C144.412 62.3659 134.487 56.2195 121.617 54.1127C120.23 53.8837 119.607 53.4761 119.112 52.1662C115.132 41.6185 102.656 37.4094 93.0381 43.3085C83.9102 48.9052 81.7118 62.1094 88.6505 69.6664L88.6047 69.7397L88.7009 69.7442C88.7742 69.8313 88.8429 69.9183 88.9161 70.0053C89.0169 70.1427 89.1222 70.2755 89.223 70.4129L89.3467 70.39L89.2276 70.4267C89.2734 70.6053 89.3192 70.7839 89.365 70.9625C87.7895 72.0526 87.4368 73.8662 86.9559 75.4784C83.3743 87.5513 80.2508 99.7524 77.2875 111.986C75.5975 118.956 77.7822 125.181 82.6736 130.434C86.4429 134.487 91.3344 136.228 96.5831 137.249C96.7388 138.174 97.0594 138.948 98.1815 138.98C98.6074 141.513 99.07 144.041 99.4547 146.583C99.8944 149.491 100.801 152.322 100.82 155.294C96.7571 157.108 92.6076 158.724 88.6871 160.85C88.0368 161.097 87.3498 161.129 86.6811 161.454C84.4827 162.526 82.179 163.387 79.9622 164.431C77.26 165.709 74.425 166.698 71.8373 168.214C65.5719 170.962 59.3202 173.733 53.0731 176.499Z" fill="#ECF39E" fill-opacity="0.7"/>
<path d="M53.0731 176.499C59.3248 173.733 65.5719 170.962 71.8236 168.196C73.3899 171.576 75.4647 174.58 78.3913 176.93C82.5362 180.26 87.1391 182.376 92.5939 182.101C94.3709 182.009 95.9922 181.519 97.4029 180.283C100.792 177.315 99.8669 171.75 97.9708 168.732C95.6945 165.109 92.3053 162.837 88.6734 160.831C92.5939 158.706 96.7434 157.094 100.806 155.276C101.745 157.689 102.029 160.25 102.45 162.773C102.688 164.211 103.384 165.063 104.685 165.517C106.673 166.208 108.734 166.533 110.822 166.561C121.727 166.707 132.193 164.729 142.085 160.002C145.667 158.289 146.478 156.746 145.804 152.867C145.534 151.309 144.994 149.784 145.181 148.163C149.45 150.041 153.888 151.52 158.037 153.664C155.949 158.871 152.523 163.231 149.148 167.619C147.577 169.662 145.997 171.709 145.09 174.159C143.583 178.222 145.891 182.009 149.881 182.119C151.772 182.17 153.425 181.542 154.992 180.566C157.268 179.142 159.114 177.104 161.537 175.899C166.162 173.596 170.733 174.91 170.916 181.066C171.008 184.203 171.498 187.29 173.014 190.12C164.793 196.258 155.674 200.586 145.864 203.489C139.594 205.344 133.209 206.622 126.642 206.814C125.707 203.796 125.726 200.783 126.495 197.719C127.109 195.273 127.663 192.781 127.333 190.23C127.017 187.798 126.165 185.618 123.77 184.473C121.42 183.347 119.401 184.258 117.495 185.659C116.694 186.25 116.03 186.965 115.379 187.72C113.149 190.308 111.299 193.166 109.435 196.015C107.332 199.23 104.932 202.221 102.418 205.12C99.9768 205.024 97.6868 204.213 95.3785 203.535C78.9043 198.667 64.9124 189.85 53.4532 177.035C53.3158 176.866 53.2013 176.673 53.0731 176.499Z" fill="#685199"/>
<path d="M173.005 190.111C171.489 187.281 170.999 184.194 170.907 181.057C170.724 174.906 166.153 173.587 161.527 175.89C159.105 177.095 157.259 179.133 154.983 180.557C153.416 181.537 151.763 182.165 149.871 182.11C145.882 182 143.578 178.208 145.081 174.15C145.988 171.7 147.568 169.652 149.139 167.61C152.514 163.222 155.94 158.866 158.028 153.654C160.763 154.273 163.217 155.615 165.787 156.645C172.588 159.384 179.362 162.182 186.145 164.958C188.824 166.052 191.504 167.152 194.183 168.251C193.51 170.403 191.824 171.869 190.514 173.577C185.733 179.797 179.953 184.995 173.733 189.731C173.522 189.901 173.252 189.992 173.005 190.111Z" fill="#F4BD40"/>
<path d="M102.423 205.111C104.937 202.212 107.337 199.221 109.439 196.006C111.303 193.157 113.153 190.299 115.384 187.711C116.034 186.956 116.694 186.241 117.5 185.65C119.405 184.253 121.42 183.342 123.775 184.464C126.165 185.609 127.022 187.789 127.338 190.221C127.668 192.772 127.113 195.264 126.5 197.709C125.73 200.773 125.712 203.787 126.646 206.805C123.22 207.405 119.767 207.167 116.332 207.048C112.292 206.911 108.267 206.462 104.287 205.692C103.645 205.569 102.949 205.587 102.423 205.111Z" fill="#F3BD41"/>
<path d="M145.177 148.158C144.989 149.78 145.529 151.305 145.8 152.862C146.473 156.746 145.662 158.285 142.081 159.998C132.188 164.724 121.727 166.707 110.818 166.556C108.729 166.529 106.664 166.204 104.68 165.512C103.384 165.059 102.688 164.207 102.445 162.769C102.024 160.25 101.74 157.685 100.801 155.271C100.783 152.299 99.876 149.464 99.4364 146.56C99.0516 144.023 98.5891 141.495 98.1631 138.957C102.981 139.965 107.845 140.597 112.769 140.473C115.265 140.409 117.784 140.194 120.198 139.411C120.926 139.172 121.558 138.756 121.265 137.858C121.045 137.18 120.573 136.827 119.74 137.02C112.782 138.595 105.853 138.137 98.9509 136.626C98.0761 136.434 97.2059 136.415 96.5647 137.231C91.316 136.209 86.4246 134.469 82.6552 130.415C77.7684 125.162 75.5791 118.938 77.2692 111.967C80.237 99.7341 83.3606 87.5329 86.9375 75.4601C87.4139 73.8525 87.7711 72.0342 89.342 70.9442C90.5145 71.6083 91.055 72.9869 92.319 73.5502C92.5114 73.7288 92.7083 73.9074 92.9007 74.0861C93.4595 74.8189 94.0823 75.483 94.9571 75.8539C95.1266 75.9913 95.2915 76.1287 95.4609 76.2707C95.6075 76.3806 95.754 76.4906 95.9006 76.6005L95.8777 76.5913C96.4731 77.3745 97.2883 77.8646 98.1631 78.2722C98.383 78.6569 98.7219 78.8538 99.1432 78.9409L99.1478 78.9271C99.2806 79.0233 99.4135 79.1195 99.5463 79.2111L99.528 79.1973C99.6562 79.2889 99.7799 79.3805 99.9081 79.4721L99.931 79.4859C100.064 79.7286 100.27 79.8523 100.545 79.866L100.531 79.8569C101.314 80.5713 102.203 81.1164 103.206 81.469L103.215 81.4736C103.352 81.7347 103.581 81.8171 103.861 81.8217C104.424 82.1514 104.974 82.5087 105.555 82.8064C114.413 87.3268 123.866 89.8 133.695 90.9863C135.531 91.2061 135.541 91.1832 134.57 92.8457C133.484 94.7052 132.605 96.6517 132.083 98.7402C131.602 100.664 131.244 102.61 131.945 104.566C132.106 106.045 132.889 107.154 133.979 108.134C134.391 107.644 134.57 107.145 134.615 106.595H134.602C135.385 105.29 136.173 103.984 136.956 102.679H136.933C137.043 102.555 137.153 102.432 137.263 102.308L137.253 102.331C137.94 101.896 138.476 101.31 138.939 100.65C139.232 100.412 139.521 100.169 139.814 99.931C141.646 98.7585 143.61 97.8654 145.649 97.1189L145.736 97.1601L145.823 97.1143C145.987 97.0685 146.152 97.0273 146.317 96.9815C147.11 97.5769 148.003 97.0639 148.859 97.1784C153.32 97.7738 154.868 101.823 154.552 104.763C153.893 110.914 148.983 116.428 142.997 117.953C142.63 118.045 142.241 118.086 141.861 118.104C139.575 118.237 139.443 118.301 139.827 120.491C140.807 126.042 141.879 131.574 142.91 137.116C143.537 140.505 144.16 143.894 144.774 147.288C144.833 147.632 144.87 147.952 145.177 148.158ZM138.824 110.254C138.646 111.212 138.948 112.228 139.685 113.121C140.098 113.616 140.537 113.982 141.233 113.593C141.994 113.167 141.998 112.485 141.623 111.903C140.72 110.502 141.128 109.155 141.678 107.836C142.301 106.338 142.933 106.251 144.091 107.328C144.824 108.01 145.465 108.734 145.694 109.746C145.9 110.657 146.294 111.619 147.366 111.367C148.557 111.088 147.98 109.915 148.035 109.114C148.053 108.816 147.884 108.473 147.723 108.193C147.178 107.236 146.51 106.375 145.694 105.629C145.47 105.422 145.113 105.198 145.296 104.818C145.47 104.456 145.868 104.607 146.175 104.561C146.995 104.442 147.641 104.919 148.36 105.152C148.873 105.317 149.491 105.372 149.848 104.809C150.238 104.195 149.986 103.673 149.51 103.201C148.845 102.542 148.016 102.317 147.128 102.258C142.662 101.955 138.824 105.564 138.824 110.254ZM91.3527 105.454C91.2061 106.563 91.4901 107.465 92.1633 108.271C93.5648 109.943 94.9159 111.66 96.3403 113.314C96.9723 114.047 97.9433 113.763 98.2135 112.805C98.4104 112.114 98.154 111.555 97.6502 111.028C96.5555 109.883 95.5067 108.693 94.4579 107.506C93.2992 106.192 93.2854 104.974 94.5953 103.806C96.7067 101.914 98.9509 100.16 101.049 98.2547C101.763 97.6044 103.311 96.899 102.221 95.6762C101.245 94.5816 100.201 95.7495 99.3997 96.3998C97.6639 97.8105 95.951 99.2623 94.3297 100.801C92.9419 102.107 90.9496 103.087 91.3527 105.454ZM106.311 121.732C110.286 121.471 113.437 119.973 115.709 116.845C116.254 116.094 116.955 115.233 115.837 114.445C114.72 113.657 114.303 114.779 113.808 115.411C112.237 117.413 110.396 118.824 107.735 119.172C106.664 119.314 105.697 119.098 104.68 119.08C103.897 119.066 103.242 119.181 103.21 120.175C103.183 120.999 103.577 121.384 104.387 121.402C105.097 121.416 105.748 121.846 106.311 121.732ZM113.474 96.8853C113.534 97.6044 113.698 98.4379 114.766 98.5249C115.769 98.6074 116.895 96.9998 116.854 95.5754C116.827 94.7006 116.561 93.8991 115.54 93.7846C114.546 93.6701 113.465 95.2686 113.474 96.8853ZM94.2976 91.3343C94.2426 90.5741 94.1739 89.6352 92.9602 89.6031C91.9526 89.5756 90.9817 91.0046 90.9817 92.4519C90.9817 93.3724 91.087 94.293 92.3053 94.3159C93.3312 94.3388 94.2839 92.9282 94.2976 91.3343Z" fill="#DB824B"/>
<path d="M92.9099 74.0861C92.7175 73.9075 92.5206 73.7288 92.3282 73.5502C91.5588 72.2358 90.8031 70.9076 89.2138 70.4083L89.3329 70.3717L89.2093 70.3946C89.2459 70.1519 89.136 70.0236 88.9024 69.9916C88.8291 69.9045 88.7604 69.8175 88.6871 69.7305L88.6368 69.6481C81.6981 62.0911 83.8965 48.8869 93.0244 43.2902C102.642 37.3957 115.118 41.6001 119.098 52.1479C119.593 53.4578 120.216 53.8654 121.604 54.0944C134.473 56.2012 144.398 62.3475 149.381 74.9654C149.775 75.9639 150.087 75.9227 150.865 75.4555C152.77 74.3059 154.795 73.4632 157.08 73.5685C159.503 73.6785 160.511 75.2448 159.627 77.5165C158.802 79.637 157.108 81.0523 155.344 82.5499C156.503 83.1407 157.731 83.301 158.633 84.1071C158.766 85.3758 159.856 85.3895 160.717 85.701C160.836 85.7147 160.905 85.7834 160.914 85.9025C161.134 87.0475 161.179 88.1925 160.914 89.3421C160.584 89.855 160.085 90.084 159.512 90.1939C159.118 90.0291 158.784 90.0382 158.61 90.5054C158.303 90.7023 157.973 90.7573 157.616 90.6886C156.306 90.2031 154.996 90.2214 153.686 90.6748C153.224 90.7206 152.775 90.7069 152.363 90.4642C151.873 89.768 151.026 89.8459 150.352 89.5619C149.294 89.1176 148.955 89.6352 149.033 90.6336C148.932 90.9176 148.827 91.2015 148.726 91.4809L148.699 91.5771C148.63 91.742 148.561 91.9069 148.497 92.0717C148.406 92.1359 148.369 92.2229 148.397 92.3328C148.3 92.5572 148.204 92.7816 148.108 93.0106C147.852 93.1206 147.755 93.3038 147.879 93.5694C147.737 93.8488 147.595 94.1236 147.453 94.403C147.389 94.435 147.371 94.4854 147.389 94.5541C147.293 94.7281 147.197 94.9022 147.1 95.0808L147.05 95.2045L147.004 95.3052C146.052 95.548 145.649 96.1479 145.823 97.1235L145.736 97.1693C145.736 97.1693 145.649 97.1281 145.649 97.1235C144.975 96.8945 144.371 97.27 143.752 97.3983C143.203 97.5128 142.699 98.2456 142.122 97.8838C140.253 96.7159 139.754 97.412 139.956 99.3081C139.979 99.5097 139.864 99.7249 139.809 99.9356C139.516 100.174 139.227 100.417 138.934 100.655C137.908 100.746 137.308 101.273 137.249 102.336L137.258 102.313C137.038 102.336 136.924 102.459 136.928 102.684H136.951C135.316 103.481 134.68 104.873 134.597 106.604H134.611C134.35 106.554 133.86 106.499 133.86 106.453C133.883 105.134 132.664 105.102 131.941 104.575C131.24 102.615 131.597 100.668 132.078 98.7494C132.6 96.6609 133.48 94.7144 134.565 92.8549C135.536 91.1878 135.527 91.2153 133.69 90.9954C123.862 89.8092 114.408 87.336 105.551 82.8156C104.969 82.5179 104.419 82.1606 103.856 81.8309C103.728 81.5515 103.494 81.4736 103.21 81.4828L103.201 81.4782C102.853 80.0401 101.836 79.7149 100.526 79.866L100.54 79.8752C100.435 79.5867 100.21 79.4951 99.9265 79.4951L99.9036 79.4813C99.7753 79.3897 99.6517 79.2981 99.5234 79.2065L99.5417 79.2203C99.4822 79.0233 99.3585 78.918 99.1433 78.9363L99.1387 78.95C99.2395 78.1027 98.699 78.1898 98.1586 78.2814C97.8151 77.1501 97.0777 76.5593 95.8732 76.6005L95.8961 76.6097C95.8365 76.3852 95.6854 76.2799 95.4564 76.2799C95.2869 76.1425 95.122 76.0051 94.9526 75.8677C94.7602 75.3868 94.3892 74.8922 94.4259 74.4296C94.4671 73.8891 94.5679 73.4495 93.9358 73.3166C93.3633 73.1792 93.0977 73.6098 92.9099 74.0861ZM89.4199 59.256C89.4566 59.7324 89.4795 60.172 89.5253 60.6071C89.626 61.5277 89.5665 62.7002 90.913 62.5857C92.2504 62.4712 92.0031 61.3491 91.9573 60.4102C91.7145 55.1386 93.9587 51.3281 98.6944 48.9968C99.473 48.6121 100.302 48.2137 99.8486 47.1786C99.3585 46.0611 98.47 46.3817 97.6181 46.7893C92.3557 49.2991 89.7085 53.5173 89.4199 59.256Z" fill="#0C0B0A"/>
<path d="M88.6688 160.831C92.3007 162.837 95.6853 165.109 97.9662 168.732C99.8623 171.75 100.792 177.315 97.3983 180.283C95.9876 181.519 94.3663 182.009 92.5893 182.101C87.1391 182.376 82.5362 180.26 78.3867 176.93C75.4555 174.58 73.3853 171.576 71.819 168.196C74.4112 166.68 77.2417 165.686 79.9439 164.413C82.156 163.369 84.4598 162.508 86.6628 161.436C87.3314 161.111 88.0184 161.079 88.6688 160.831Z" fill="#F3BD41"/>
<path d="M96.5693 137.235C97.206 136.42 98.0762 136.438 98.9555 136.631C105.862 138.142 112.787 138.605 119.744 137.024C120.578 136.837 121.049 137.185 121.269 137.863C121.558 138.76 120.926 139.177 120.202 139.415C117.788 140.198 115.269 140.414 112.773 140.478C107.85 140.606 102.986 139.974 98.1678 138.962C97.0457 138.934 96.7251 138.16 96.5693 137.235Z" fill="#BD632F"/>
<path d="M89.2138 70.4129C90.8031 70.9121 91.5588 72.2403 92.3282 73.5548C91.0687 72.996 90.5237 71.6129 89.3512 70.9488C89.3054 70.7701 89.2596 70.5915 89.2138 70.4129Z" fill="#241510"/>
<path d="M153.696 90.6794C155.006 90.226 156.315 90.2031 157.625 90.6931C156.311 91.1099 155.001 91.0824 153.696 90.6794Z" fill="#241510"/>
<path d="M149.038 90.6336C148.96 89.6397 149.299 89.1176 150.357 89.5619C151.035 89.8458 151.877 89.768 152.367 90.4641C151.653 90.5466 150.998 90.2672 150.38 90.0016C149.615 89.6764 149.331 90.0932 149.038 90.6336Z" fill="#241510"/>
<path d="M160.923 89.3466C161.188 88.2016 161.138 87.0566 160.923 85.907C161.944 87.052 162.169 88.2016 160.923 89.3466Z" fill="#241510"/>
<path d="M160.721 85.7055C159.86 85.3941 158.77 85.3758 158.637 84.1117C159.531 84.3865 160.208 84.9407 160.721 85.7055Z" fill="#241510"/>
<path d="M145.827 97.128C145.653 96.1525 146.056 95.5525 147.009 95.3098C146.78 95.8731 146.551 96.4319 146.322 96.9952C146.157 97.041 145.992 97.0822 145.827 97.128Z" fill="#241510"/>
<path d="M158.615 90.51C158.789 90.0428 159.128 90.0336 159.517 90.1985C159.274 90.4642 158.986 90.597 158.615 90.51Z" fill="#241510"/>
<path d="M147.879 93.574C147.755 93.3037 147.852 93.1251 148.108 93.0152C148.168 93.2534 148.103 93.4457 147.879 93.574Z" fill="#241510"/>
<path d="M88.6369 69.6526L88.6875 69.7354L88.5909 69.7263L88.6369 69.6526Z" fill="#241510"/>
<path d="M148.397 92.3374C148.374 92.2274 148.406 92.1404 148.497 92.0763C148.465 92.1633 148.433 92.2503 148.397 92.3374Z" fill="#241510"/>
<path d="M147.394 94.5593C147.375 94.4903 147.398 94.4397 147.458 94.4075L147.504 94.5133L147.394 94.5593Z" fill="#241510"/>
<path d="M147.05 95.2096L147.101 95.0854L147.16 95.1682L147.05 95.2096Z" fill="#241510"/>
<path d="M148.703 91.5821L148.731 91.4855L148.8 91.5361L148.703 91.5821Z" fill="#241510"/>
<path d="M88.9024 69.9961C89.1406 70.0282 89.2505 70.161 89.2093 70.3992C89.1085 70.2663 89.0077 70.1289 88.9024 69.9961Z" fill="#241510"/>
<path d="M138.824 110.254C138.829 105.564 142.667 101.951 147.132 102.258C148.021 102.317 148.85 102.546 149.514 103.201C149.99 103.673 150.242 104.2 149.853 104.809C149.496 105.372 148.877 105.317 148.364 105.152C147.641 104.919 146.995 104.442 146.18 104.561C145.868 104.607 145.47 104.456 145.3 104.818C145.122 105.198 145.475 105.418 145.699 105.629C146.514 106.375 147.183 107.236 147.728 108.193C147.888 108.473 148.058 108.812 148.039 109.114C147.984 109.92 148.557 111.088 147.371 111.367C146.299 111.619 145.91 110.657 145.699 109.746C145.47 108.738 144.829 108.01 144.096 107.328C142.933 106.247 142.305 106.334 141.682 107.836C141.133 109.155 140.725 110.506 141.627 111.903C142.003 112.48 141.994 113.163 141.238 113.593C140.542 113.982 140.102 113.621 139.69 113.121C138.943 112.228 138.646 111.212 138.824 110.254Z" fill="#BD622E"/>
<path d="M91.3527 105.455C90.9542 103.087 92.942 102.102 94.3251 100.797C95.951 99.2578 97.6594 97.8059 99.3952 96.3953C100.197 95.7449 101.241 94.5816 102.216 95.6716C103.306 96.8945 101.758 97.5998 101.044 98.2502C98.9463 100.16 96.7021 101.91 94.5908 103.801C93.2855 104.974 93.2946 106.187 94.4534 107.502C95.5022 108.688 96.551 109.879 97.6456 111.024C98.1494 111.55 98.4059 112.105 98.209 112.801C97.9342 113.758 96.9678 114.047 96.3357 113.309C94.9114 111.656 93.5603 109.943 92.1588 108.267C91.4901 107.465 91.2061 106.563 91.3527 105.455Z" fill="#BD632E"/>
<path d="M106.311 121.732C105.748 121.851 105.097 121.416 104.387 121.402C103.577 121.388 103.183 120.999 103.21 120.175C103.242 119.181 103.897 119.062 104.681 119.08C105.697 119.098 106.664 119.314 107.735 119.172C110.392 118.824 112.238 117.417 113.808 115.411C114.303 114.779 114.72 113.657 115.837 114.445C116.955 115.233 116.254 116.094 115.709 116.845C113.433 119.973 110.286 121.471 106.311 121.732Z" fill="#BD632E"/>
<path d="M113.474 96.8853C113.465 95.2686 114.546 93.6701 115.535 93.7846C116.561 93.8991 116.827 94.7006 116.85 95.5754C116.891 96.9998 115.764 98.6074 114.761 98.5249C113.703 98.4379 113.538 97.5998 113.474 96.8853Z" fill="#1E110D"/>
<path d="M94.2976 91.3344C94.2839 92.9282 93.3312 94.3388 92.3053 94.3205C91.087 94.293 90.9771 93.377 90.9817 92.4565C90.9863 91.0092 91.9572 89.5802 92.9603 89.6077C94.174 89.6352 94.2427 90.5741 94.2976 91.3344Z" fill="#20130E"/>
<path d="M139.818 99.9402C139.869 99.7295 139.983 99.5142 139.965 99.3127C139.763 97.4166 140.262 96.7159 142.131 97.8883C142.704 98.2502 143.207 97.5174 143.762 97.4029C144.38 97.2746 144.98 96.8991 145.658 97.1281C143.62 97.8746 141.65 98.7677 139.818 99.9402Z" fill="#241510"/>
<path d="M131.95 104.571C132.673 105.102 133.892 105.129 133.869 106.448C133.869 106.494 134.359 106.549 134.62 106.599C134.574 107.149 134.4 107.644 133.983 108.138C132.893 107.158 132.106 106.05 131.95 104.571Z" fill="#1F100C"/>
<path d="M92.9099 74.0861C93.0977 73.6098 93.3588 73.1792 93.9496 73.3029C94.5816 73.4357 94.4809 73.8708 94.4396 74.4158C94.403 74.8784 94.774 75.3731 94.9663 75.854C94.0961 75.4876 93.4733 74.8235 92.9099 74.0861Z" fill="#241510"/>
<path d="M134.602 106.604C134.684 104.877 135.321 103.481 136.956 102.684C136.173 103.989 135.389 105.299 134.602 106.604Z" fill="#1F100C"/>
<path d="M100.54 79.8569C101.845 79.7057 102.862 80.0309 103.215 81.469C102.207 81.1164 101.323 80.5714 100.54 79.8569Z" fill="#241510"/>
<path d="M95.8915 76.5913C97.096 76.5501 97.838 77.1409 98.1769 78.2768C97.3021 77.8646 96.4869 77.3745 95.8915 76.5913Z" fill="#241510"/>
<path d="M137.263 102.34C137.322 101.278 137.922 100.751 138.948 100.659C138.485 101.319 137.95 101.905 137.263 102.34Z" fill="#1F100C"/>
<path d="M98.1769 78.2722C98.7173 78.1806 99.2578 78.0936 99.157 78.9409C98.7356 78.8539 98.3921 78.6569 98.1769 78.2722Z" fill="#241510"/>
<path d="M103.219 81.4736C103.503 81.4599 103.737 81.5423 103.865 81.8217C103.59 81.8217 103.357 81.7347 103.219 81.4736Z" fill="#241510"/>
<path d="M99.9402 79.4859C100.224 79.4859 100.449 79.5775 100.554 79.866C100.279 79.8523 100.073 79.7286 99.9402 79.4859Z" fill="#241510"/>
<path d="M95.4701 76.2707C95.6991 76.2662 95.8502 76.3761 95.9098 76.6005C95.7678 76.4906 95.6167 76.3807 95.4701 76.2707Z" fill="#241510"/>
<path d="M136.937 102.688C136.933 102.464 137.047 102.345 137.267 102.317C137.157 102.441 137.047 102.565 136.937 102.688Z" fill="#1F100C"/>
<path d="M99.5417 79.1974C99.67 79.289 99.7936 79.3806 99.9219 79.4722C99.7936 79.3806 99.6654 79.289 99.5417 79.1974Z" fill="#241510"/>
<path d="M99.1616 78.9271C99.3723 78.9088 99.5005 79.0141 99.5601 79.2111C99.4273 79.1195 99.2944 79.0233 99.1616 78.9271Z" fill="#241510"/>
<path d="M89.4199 59.256C89.7085 53.5173 92.3557 49.2991 97.6135 46.7847C98.4654 46.3771 99.3585 46.061 99.844 47.174C100.297 48.2091 99.4684 48.6075 98.6898 48.9922C93.9541 51.3235 91.7053 55.1386 91.9527 60.4056C91.9985 61.3445 92.2458 62.4666 90.9084 62.5811C89.5619 62.6956 89.6214 61.5231 89.5207 60.6025C89.4795 60.172 89.4566 59.7323 89.4199 59.256Z" fill="#E8E8E7"/>
</svg>
