<svg width="60" height="60" viewBox="0 0 60 60" fill="none" xmlns="http://www.w3.org/2000/svg">
<path d="M17.4636 34.5348C16.2384 34.9608 15.4752 34.4364 14.7576 33.648C13.9152 32.7216 12.9828 31.8768 12.1128 30.9732C11.2812 30.1104 11.2608 29.316 12.1056 28.4688C17.5092 23.046 22.9236 17.6328 28.3464 12.228C29.2116 11.3652 29.9832 11.352 30.8424 12.2076C36.2664 17.6112 41.6796 23.0244 47.0832 28.4484C47.9628 29.3316 47.9328 30.114 47.046 31.0272C46.1724 31.926 45.252 32.7816 44.3964 33.6972C43.698 34.446 42.9708 35.0004 41.7444 34.4796C41.7444 34.9704 41.7444 35.3148 41.7444 35.6604C41.7444 39.0264 41.7504 42.3924 41.7408 45.7596C41.7348 47.9232 40.3968 49.2852 38.2272 49.2912C32.4852 49.3068 26.742 49.3068 21 49.2924C18.7824 49.2876 17.4672 47.9292 17.4636 45.6852C17.4588 42.0228 17.4636 38.3628 17.4636 34.5348ZM29.5836 22.4016C26.5704 25.416 23.5884 28.4004 20.5932 31.398C20.5932 36.264 20.5932 41.1672 20.5932 46.1388C26.6304 46.1388 32.604 46.1388 38.628 46.1388C38.628 41.1444 38.628 36.24 38.628 31.4808C35.5692 28.4112 32.5944 25.4244 29.5836 22.4016ZM16.4844 31.026C16.8564 30.6732 17.1468 30.4104 17.4228 30.1344C20.898 26.6604 24.372 23.1852 27.846 19.71C29.3664 18.1896 29.85 18.1932 31.398 19.7424C34.872 23.2176 38.3448 26.694 41.8212 30.168C42.096 30.4428 42.3876 30.6996 42.732 31.0224C43.1664 30.5736 43.5504 30.1776 43.848 29.8704C39.0456 25.0668 34.278 20.298 29.64 15.6564C24.942 20.3496 20.1756 25.1112 15.3756 29.9064C15.6624 30.1968 16.0308 30.5688 16.4844 31.026Z" fill="#31572C"/>
</svg>
