<svg width="232" height="232" viewBox="0 0 232 232" fill="none" xmlns="http://www.w3.org/2000/svg">
<path d="M127.438 82.7173C127.405 91.357 123.494 97.8483 118.515 103.88C113.805 109.588 108.618 114.97 104.516 121.085C99.0733 129.201 96.744 138.657 95.4958 148.285C94.8648 153.139 94.257 158.08 94.4843 162.943C94.8045 169.856 95.8902 176.738 96.6837 183.628C96.7811 184.459 97.0642 185.127 95.7186 184.704C75.1773 178.255 59.4013 165.982 49.1515 146.856C48.3766 145.408 48.5112 144.573 49.7362 143.492C59.0997 135.2 69.433 128.264 79.9565 121.573C89.3803 115.573 98.9202 109.643 106.53 101.338C109.741 97.8298 112.724 93.8301 114.715 89.5474C119.28 79.7013 113.207 70.7229 102.344 70.5651C79.8637 70.2357 59.044 64.1619 39.8483 52.483C37.765 51.2163 36.3266 49.5134 36.656 46.9104C36.9437 44.6322 38.396 42.8922 40.5629 42.739C42.4142 42.6091 44.4466 43.3098 46.219 44.0661C53.9261 47.3466 61.4197 51.1931 69.2752 54.0653C80.1189 58.0325 91.5379 59.1925 103.045 59.6797C110.613 59.9998 117.438 62.3152 122.385 68.5328C125.79 72.8248 127.336 77.7571 127.438 82.7173ZM88.5451 141.868C88.7539 141.13 89.2272 140.346 89.0138 140.044C86.5128 136.518 83.2091 134.064 78.9264 133.154C78.6805 133.103 77.7942 134.356 77.9102 134.528C80.3648 138.128 83.9237 140.198 88.5451 141.868ZM73.3166 160.892C77.3488 160.409 80.8706 159.579 83.7381 157.055C84.1418 156.702 84.281 156.043 84.5408 155.528C83.9886 155.324 83.3344 154.814 82.8982 154.957C79.525 156.076 76.1795 157.282 72.8758 158.581C72.4165 158.762 72.2216 159.616 71.9061 160.159C72.4536 160.447 73.0058 160.73 73.3166 160.892ZM62.125 152.679C62.2734 152.842 62.4173 153.009 62.5658 153.171C65.1595 151.853 67.7765 150.573 70.3238 149.171C70.7461 148.939 70.8667 148.151 71.1266 147.617C70.5651 147.408 69.8877 146.888 69.4608 147.046C66.7139 148.058 64.0042 149.171 61.3408 150.378C60.9325 150.563 60.5195 151.482 60.6494 151.886C60.7701 152.271 61.6053 152.424 62.125 152.679ZM87.5197 166.075C87.1531 165.611 86.5731 164.822 86.5406 164.845C85.3667 165.653 84.0907 166.395 83.1859 167.458C82.7869 167.926 83.1674 169.058 83.1906 169.889C84.2763 169.341 85.4549 168.919 86.4107 168.2C86.949 167.801 87.1067 166.915 87.5197 166.075ZM90.0995 126.421C91.589 127.86 92.8046 129.034 94.0203 130.208C94.359 129.772 94.953 129.359 94.9901 128.904C95.1293 127.108 93.2083 124.686 91.8256 124.872C91.3941 124.923 91.0414 125.54 90.0995 126.421Z" fill="#90A955"/>
<path d="M158.136 143.617C164.019 140.555 169.165 136.824 172.872 131.465C174.413 129.243 175.564 126.746 176.779 124.315C176.919 124.032 176.408 123.044 176.056 122.96C173.675 122.394 171.262 121.986 168.859 121.512C167.699 121.285 167.128 121.568 166.724 122.881C164.892 128.867 160.521 132.788 155.027 135.038C148.081 137.882 140.833 139.984 133.72 142.406C131.368 143.209 129.015 144.016 126.004 144.448C128.338 140.29 130.667 136.133 133.089 131.818C128.417 133.098 123.591 134.393 118.793 135.78C118.376 135.901 118.051 136.616 117.837 137.121C114.589 144.754 114.195 152.851 113.884 160.98C113.281 176.598 116.919 191.395 122.255 205.909C123.818 210.16 121.294 213.732 117.132 213.486C114.868 213.352 113.327 211.964 112.682 209.946C109.963 201.422 107.036 192.945 104.841 184.282C102.655 175.652 102.233 166.734 102.702 157.839C103.384 144.852 105.695 132.3 113.638 121.494C118.204 115.281 124.784 112.418 132.11 111.225C152.16 107.968 171.907 109.072 191.214 115.74C195.158 117.104 195.251 117.1 194.416 121.921C192.18 134.857 187.099 146.573 179.109 157.004C178.909 157.264 177.907 157.338 177.74 157.129C172.743 150.879 166.428 146.554 158.869 144.007C158.674 143.947 158.498 143.817 158.136 143.617Z" fill="#90A955"/>
<path d="M52.8774 90.9579C63.981 99.6254 77.4509 100.567 90.7723 103.839C84.7682 107.787 79.1677 111.258 73.7946 115.053C64.0738 121.921 54.4922 128.983 44.8317 135.933C44.6507 136.063 43.9826 135.901 43.9083 135.725C41.2032 129.071 39.3426 122.222 39.2962 114.979C39.2822 112.738 41.0454 111.096 43.7598 111.573C47.4022 112.214 50.9333 113.508 54.5246 114.464C55.0768 114.613 55.8378 114.682 56.2739 114.418C58.7702 112.887 61.197 111.244 63.3128 109.857C58.1438 106.906 52.6872 104.279 47.792 100.85C43.2912 97.6952 39.2822 93.7976 35.2779 89.9974C32.8002 87.6403 33.473 85.3714 36.6838 84.2392C45.6622 81.0794 54.803 78.713 64.3707 78.1469C77.771 77.3534 90.1506 80.207 101.222 88.0254C104.59 90.4058 104.604 90.4197 101.834 93.4264C100.321 95.069 98.9526 97.6163 97.157 97.9829C95.5515 98.3077 93.4403 96.215 91.5704 95.1618C79.3486 88.2667 66.4402 87.7238 52.8774 90.9579Z" fill="#90A955"/>
<path d="M121.596 170.645C121.902 159.597 128.444 150.536 137.53 149.014C147.32 147.371 155.923 150.313 163.541 156.21C166.358 158.391 168.59 161.347 170.947 164.075C171.304 164.488 171.184 165.903 170.761 166.307C159.667 176.946 146.605 183.725 131.349 186.11C130.56 186.236 129.758 186.315 128.969 186.431C124.825 187.057 124.7 187.085 123.809 182.974C122.923 178.895 122.324 174.761 121.596 170.645ZM145.659 158.72C145.037 158.999 144.471 159.073 144.336 159.356C144.183 159.676 144.295 160.27 144.513 160.59C147.046 164.302 150.568 166.822 154.544 168.757C154.944 168.952 155.556 168.715 156.071 168.678C156.015 168.135 156.164 167.393 155.867 167.082C153.821 164.938 151.77 162.785 149.533 160.85C148.434 159.894 146.935 159.398 145.659 158.72ZM129.563 161.291C129.428 161.644 128.881 162.409 129.066 162.683C131.544 166.358 134.992 168.803 139.2 170.116C139.497 170.209 140.573 169.165 140.49 168.877C139.78 166.418 132.871 161.449 129.563 161.291Z" fill="#90A955"/>
<path d="M160.47 101.676C168.715 94.7534 175.531 86.9026 179.791 76.7595C172.71 78.9403 166.158 81.7614 161.101 86.9026C156.837 91.2363 153.231 96.2197 149.278 100.864C148.837 101.384 148.03 101.806 147.357 101.871C143.098 102.275 138.829 102.567 134.565 102.883C134.221 102.906 133.873 102.841 133.53 102.818C133.678 102.317 133.753 101.778 133.98 101.319C141.334 86.5221 152.067 75.1077 167.843 69.4608C175.503 66.7186 183.619 65.2291 191.558 63.285C193.762 62.7467 195.112 64.4032 194.272 66.9552C192.3 72.9547 190.398 79.0192 187.809 84.7635C184.579 91.9277 180.032 98.3077 173.972 103.463C173.717 103.681 173.35 103.982 173.086 103.941C168.97 103.235 164.864 102.474 160.47 101.676Z" fill="#90A955"/>
<path d="M135.743 81.9378C135.34 73.479 132.528 66.1896 126.138 60.5427C131.651 59.3363 137.135 58.464 142.42 56.9096C153.06 53.7776 163.546 50.1398 174.176 46.9754C179.916 45.2678 185.795 44.0058 191.651 42.7251C194.852 42.0245 197.237 43.5325 198.035 46.3258C198.782 48.9474 197.27 51.9819 194.309 52.8542C188.384 54.5942 182.347 55.9491 176.413 57.6474C164.237 61.132 152.424 65.4194 142.958 74.3189C140.462 76.6667 138.24 79.2883 135.743 81.9378Z" fill="#90A955"/>
<path d="M103.384 32.4893C103.379 24.6291 109.662 18.5043 117.726 18.4997C125.382 18.495 131.669 24.8797 131.669 32.6517C131.665 40.4794 125.238 46.8037 117.248 46.8315C109.55 46.864 103.384 40.484 103.384 32.4893Z" fill="#90A955"/>
</svg>
