<svg width="24" height="24" viewBox="0 0 24 24" fill="none" xmlns="http://www.w3.org/2000/svg">
<g clip-path="url(#clip0_16_189)">
<path d="M19.0613 23.7101C15.3264 23.4187 12.0302 22.0224 9.42048 19.5687C6.66144 16.9752 4.04832 14.1226 1.88448 11.0208C-0.141118 8.11683 -0.650398 4.68771 1.5864 1.46355C2.85456 -0.364294 3.95088 -0.384454 5.5464 1.18563C6.10128 1.73187 6.64368 2.29155 7.19424 2.84211C9.48 5.12883 9.41328 5.07939 7.56384 7.64403C7.14144 8.22963 7.02096 9.45267 7.3392 10.0901C8.80224 13.0186 11.087 15.2698 13.9934 16.7122C14.6645 17.0453 16.0622 16.7055 16.6872 16.1635C18.1656 14.8815 19.344 14.7087 20.6237 16.2912C20.9784 16.7299 21.456 17.0707 21.7958 17.5186C22.5994 18.5779 24.4862 19.2447 23.6818 20.9515C22.8077 22.8077 21.0254 23.605 19.0613 23.7101Z" fill="#31572C"/>
</g>
<defs>
<clipPath id="clip0_16_189">
<rect width="24" height="24" fill="white"/>
</clipPath>
</defs>
</svg>
