<svg width="58" height="58" viewBox="0 0 58 58" fill="none" xmlns="http://www.w3.org/2000/svg">
<path d="M45.9857 35.8764C44.5426 35.8764 43.0996 35.8718 41.6566 35.8788C41.0812 35.8811 41.0812 35.8927 40.9687 36.4622C40.5128 38.7602 38.9955 40.0919 36.6071 40.1174C32.583 40.1615 28.559 40.1661 24.535 40.1151C22.1628 40.0849 20.6791 38.7567 20.1942 36.4263C20.0829 35.8904 20.0829 35.8788 19.475 35.8776C16.7548 35.873 14.0358 35.8811 11.3156 35.8695C10.8771 35.8672 10.4236 35.8393 10.0013 35.728C7.7428 35.134 6.59556 32.6876 7.63028 30.595C8.59888 28.638 10.1347 27.2321 12.1056 26.2983C12.1311 26.2867 12.1566 26.2774 12.1821 26.2658C12.863 25.9526 12.8665 25.9492 12.3631 25.4248C9.72872 22.6791 10.927 18.0391 14.3989 16.9162C17.4311 15.9349 21.1756 17.4765 21.4273 21.6618C21.5224 23.2429 20.9076 24.5896 19.7558 25.6719C19.511 25.9028 19.5388 26.0002 19.8196 26.1139C21.5944 26.8296 23.0049 28 24.1092 29.5498C24.2635 29.7656 24.39 29.8143 24.651 29.6681C25.2785 29.3178 25.9316 29.0116 26.5789 28.6984C26.9559 28.5162 26.9756 28.5081 26.6415 28.2146C25.6752 27.3667 24.9897 26.3412 24.7043 25.085C24.0072 22.0214 25.5105 18.8987 28.5961 17.9208C31.3221 17.0566 34.1688 17.9753 35.642 20.2547C37.1395 22.5724 37.0166 25.8181 34.8056 27.9571C34.6861 28.0731 34.555 28.1775 34.4332 28.2889C34.221 28.4826 34.2824 28.5731 34.533 28.6856C35.1896 28.9802 35.845 29.2842 36.4667 29.6414C36.759 29.8096 36.8797 29.7586 37.0746 29.5231C37.5502 28.9478 38.0281 28.3666 38.564 27.8492C39.3493 27.0918 40.282 26.5408 41.2946 26.1313C41.58 26.0153 41.6728 25.9236 41.3828 25.6464C39.2136 23.5804 39.3238 20.6108 40.7599 18.691C42.0904 16.9116 43.9429 16.3502 46.0715 16.7492C48.2604 17.1598 49.5863 18.5449 50.0886 20.6862C50.5282 22.5608 49.9946 24.1883 48.6583 25.5629C48.2906 25.941 48.2883 25.9561 48.7871 26.1707C50.6547 26.9746 52.1058 28.2657 53.202 29.9628C54.2344 31.5612 54.072 33.1574 53.1626 34.394C52.4376 35.38 51.44 35.8382 50.2313 35.8718C50.1756 35.873 50.1199 35.873 50.0642 35.873C48.7059 35.8764 47.3452 35.8764 45.9857 35.8764ZM30.596 38.3496C32.6202 38.3496 34.6444 38.3078 36.6662 38.3612C38.7102 38.4145 39.9282 36.2627 38.8749 34.4879C38.1847 33.3268 37.3448 32.3036 36.2382 31.5334C33.4797 29.6136 30.4742 29.2227 27.3097 30.2899C25.0662 31.0462 23.3854 32.5252 22.2358 34.6016C21.8507 35.2964 21.7834 36.0214 22.0514 36.7615C22.4191 37.7777 23.2497 38.3356 24.441 38.3449C26.493 38.36 28.5451 38.3484 30.596 38.3496ZM15.458 34.1504C15.458 34.1515 15.458 34.1515 15.458 34.1527C16.9822 34.1527 18.5053 34.1538 20.0295 34.1515C20.2754 34.1515 20.5318 34.1886 20.6756 33.9021C21.2034 32.8523 21.9215 31.9452 22.7404 31.1088C22.8193 31.0276 22.8286 30.8049 22.7787 30.6866C22.694 30.4871 22.5467 30.3108 22.4087 30.1379C20.3833 27.5801 17.0344 26.4967 13.914 27.4351C11.9223 28.0337 10.3899 29.2528 9.33664 31.0543C9.06636 31.5172 8.89236 32.0067 9.00952 32.5588C9.20904 33.4996 9.9526 34.1306 10.9699 34.1457C12.4652 34.1666 13.9616 34.1504 15.458 34.1504ZM45.6736 34.1527C45.8952 34.1527 46.1168 34.1527 46.3383 34.1527C47.6132 34.1527 48.888 34.1736 50.1617 34.1457C51.7729 34.1098 52.6325 32.669 51.9237 31.2306C51.8263 31.0323 51.7126 30.8397 51.5862 30.6599C49.9042 28.2552 47.612 27.043 44.661 27.1405C42.109 27.2252 40.1103 28.3678 38.5814 30.3769C38.2021 30.8757 38.2485 30.8664 38.622 31.3327C39.209 32.0647 39.7936 32.8048 40.2994 33.5924C40.5534 33.988 40.7842 34.1759 41.268 34.1654C42.7365 34.133 44.2051 34.1527 45.6736 34.1527ZM30.625 19.3511C28.3166 19.2188 26.2576 21.0841 26.2715 23.5781C26.2854 26.0628 28.0498 27.9165 30.5403 27.9154C33.5354 27.9142 34.8914 25.6046 34.9019 23.6616C34.917 21.025 32.7907 19.2432 30.625 19.3511ZM16.1621 25.3286C17.9798 25.3552 19.7152 23.9493 19.7036 21.823C19.692 19.7316 18.0134 18.3662 16.2096 18.3535C14.3455 18.3407 12.6844 19.7768 12.6589 21.859C12.6345 23.7556 14.2469 25.3216 16.1621 25.3286ZM44.9614 25.3286C46.894 25.3355 48.5156 23.7904 48.5075 21.8799C48.4994 19.8476 46.9056 18.3848 45.0403 18.3535C43.1599 18.3222 41.4605 19.7513 41.4617 21.8416C41.4628 23.9273 43.1518 25.3332 44.9614 25.3286Z" fill="#31572C"/>
<path d="M30.7616 51.6281C24.0081 51.5028 18.3102 49.2582 13.6818 44.4976C12.3814 43.1601 11.291 41.6567 10.3781 40.0281C10.2575 39.8135 10.1368 39.585 10.0869 39.3483C10.0023 38.9505 10.1855 38.6245 10.5254 38.4493C10.863 38.2753 11.2272 38.3264 11.5079 38.6291C11.6564 38.7892 11.7643 38.9887 11.8768 39.179C14.894 44.2551 19.2544 47.6041 24.928 49.1979C27.3953 49.8904 29.9218 50.0865 32.4981 49.8533C36.4653 49.496 40.037 48.1481 43.2595 45.8432C45.7291 44.0753 47.715 41.8574 49.2532 39.2393C49.3657 39.0479 49.4689 38.8472 49.6081 38.6779C49.9097 38.3136 50.2531 38.2429 50.6417 38.4343C51.0164 38.6187 51.1881 38.9609 51.0732 39.4063C51.0117 39.643 50.8865 39.8669 50.7623 40.0815C47.9691 44.8978 43.9647 48.2757 38.7308 50.1827C36.5059 50.9936 34.2161 51.4901 31.8393 51.5457C31.4251 51.555 31.011 51.6084 30.7616 51.6281Z" fill="#31572C"/>
<path d="M48.4446 13.5001C48.4794 14.0372 48.302 14.3016 47.9783 14.4664C47.679 14.6183 47.3832 14.5882 47.128 14.3643C46.9622 14.2193 46.8102 14.0557 46.664 13.8898C43.59 10.4017 39.7435 8.23137 35.223 7.25117C33.324 6.83937 31.3903 6.74193 29.4415 6.82893C26.3513 6.96697 23.4304 7.72329 20.6719 9.10137C18.4169 10.2277 16.4484 11.7438 14.7559 13.6138C14.5703 13.8191 14.3963 14.0383 14.1968 14.2286C13.7885 14.6195 13.3755 14.6566 13.0113 14.3562C12.6354 14.0464 12.5693 13.521 12.9312 13.0976C13.4892 12.4456 14.0634 11.7995 14.6863 11.2126C17.5504 8.51441 20.9144 6.71641 24.7273 5.77217C27.2143 5.15621 29.7315 4.93465 32.3032 5.12025C36.6683 5.43577 40.6297 6.82197 44.2002 9.33337C45.6572 10.3588 46.9691 11.5524 48.1001 12.934C48.2683 13.1416 48.3808 13.3922 48.4446 13.5001Z" fill="#31572C"/>
<path d="M29.7816 46.6889C24.8493 46.5369 20.1188 44.3828 16.4497 39.998C15.9463 39.396 15.9289 38.9018 16.3534 38.5469C16.7931 38.1791 17.2513 38.2719 17.7617 38.9041C19.8241 41.4608 22.4353 43.1985 25.5673 44.1578C27.653 44.7969 29.7769 45.0162 31.9624 44.8375C36.2706 44.4837 39.8956 42.7611 42.8281 39.5862C43.0914 39.302 43.3141 38.9795 43.5821 38.7C44.0032 38.2615 44.444 38.2244 44.8279 38.5608C45.1933 38.8809 45.2258 39.3635 44.8639 39.8229C43.1529 41.9909 41.0347 43.6555 38.5558 44.8642C36.0235 46.0985 33.3439 46.6843 29.7816 46.6889Z" fill="#31572C"/>
<path d="M30.2733 9.98877C34.3657 10.041 37.8109 11.0908 40.9278 13.195C41.1564 13.3493 41.3837 13.5163 41.5716 13.7158C41.8674 14.0279 41.8721 14.449 41.625 14.7726C41.3547 15.1264 41.0009 15.2308 40.6042 15.0382C40.3815 14.9304 40.1796 14.7784 39.9755 14.6369C37.8886 13.1938 35.5791 12.2682 33.0816 11.9132C28.8917 11.3158 24.986 12.1684 21.4213 14.4826C21.1661 14.6485 20.926 14.8434 20.6615 14.9907C20.2045 15.2459 19.7811 15.1403 19.505 14.732C19.2672 14.3782 19.3252 13.9467 19.6825 13.6161C19.8646 13.4479 20.0769 13.311 20.2822 13.1695C22.5813 11.5872 25.1368 10.6418 27.8744 10.1918C28.7734 10.0433 29.6944 10.034 30.2733 9.98877Z" fill="#31572C"/>
</svg>
