<svg width="34" height="34" viewBox="0 0 34 34" fill="none" xmlns="http://www.w3.org/2000/svg">
<path d="M21.9518 12.6446C21.8328 12.6507 21.7484 12.6589 21.6634 12.6596C21.0514 12.6602 20.4394 12.6514 19.8281 12.663C19.6098 12.667 19.5221 12.6181 19.5316 12.3964C19.55 11.9782 19.5371 11.5593 19.5364 11.1404C19.5337 9.60976 18.3042 8.25384 16.7436 8.06004C15.009 7.84516 13.4429 8.8162 13.0247 10.3809C12.9608 10.6196 12.9513 10.8752 12.9486 11.1234C12.9397 12.0251 12.954 12.9268 12.9397 13.8285C12.9363 14.0617 13.0254 14.1073 13.2525 14.1066C16.3982 14.1012 19.5439 14.1032 22.6896 14.1025C24.0686 14.1025 25.1988 15.0953 25.279 16.3812C25.2892 16.5417 25.2878 16.7028 25.2878 16.864C25.2885 20.2375 25.2865 23.6116 25.2892 26.9851C25.2899 28.0214 24.8309 28.8164 23.8313 29.2733C23.4736 29.4372 23.0391 29.5263 22.6392 29.5276C18.3818 29.5426 14.125 29.5229 9.86748 29.5372C8.4864 29.5419 7.4154 28.6457 7.21072 27.506C7.18828 27.3795 7.17944 27.2496 7.17944 27.1218C7.17876 23.5953 7.17808 20.0688 7.1808 16.5417C7.18148 15.6502 7.60036 14.9627 8.38848 14.4752C8.89508 14.1617 9.46696 14.0814 10.0681 14.0978C10.5461 14.1107 10.5271 14.1766 10.5284 13.6755C10.5305 12.7412 10.4897 11.8055 10.5427 10.8739C10.6624 8.76248 11.762 7.20324 13.7904 6.29C16.4499 5.09252 19.5568 5.97992 21.1086 8.31912C21.656 9.14464 21.9184 10.0558 21.949 11.0221C21.9654 11.5525 21.9518 12.0829 21.9518 12.6446ZM15.3524 23.5518C15.353 23.5518 15.353 23.5518 15.3537 23.5518C15.3537 23.8095 15.349 24.0672 15.3551 24.3243C15.3673 24.8336 15.7277 25.1879 16.2262 25.1879C16.743 25.1879 17.1 24.8343 17.104 24.3107C17.1081 23.8442 17.119 23.3764 17.1 22.9106C17.0904 22.676 17.1632 22.5434 17.3917 22.4223C18.3212 21.9273 18.7333 20.9229 18.4253 19.9743C18.1397 19.093 17.2904 18.4715 16.3309 18.4402C15.317 18.4069 14.4384 18.9611 14.0692 19.8655C13.734 20.6876 13.9788 21.7267 14.7927 22.2204C15.3286 22.5454 15.404 22.914 15.353 23.4076C15.3483 23.4552 15.3524 23.5035 15.3524 23.5518Z" fill="#31572C"/>
</svg>
