<svg width="60" height="60" viewBox="0 0 60 60" fill="none" xmlns="http://www.w3.org/2000/svg">
<path d="M29.8212 47.9089C26.2452 47.9089 22.6692 47.9137 19.092 47.9077C16.842 47.9041 15.264 46.4101 15.1788 44.1637C14.9196 37.3213 19.1316 31.8913 24.9216 30.0541C27.1464 29.3485 29.424 29.2741 31.7328 29.4709C35.0532 29.7529 37.8972 31.0729 40.2588 33.3889C42.7308 35.8153 44.1528 38.7673 44.3724 42.2509C44.4252 43.0825 44.466 43.9309 44.3664 44.7541C44.1456 46.5913 42.6084 47.8981 40.7292 47.9041C37.0932 47.9173 33.4572 47.9077 29.8212 47.9089ZM29.8236 46.2853C33.3996 46.2853 36.9756 46.2889 40.5516 46.2841C41.8992 46.2817 42.8112 45.4429 42.8412 44.1193C42.9216 40.6645 41.9616 37.5529 39.5568 35.0125C35.6544 30.8917 30.786 30.1969 25.6008 31.5985C20.1984 33.0589 16.8168 37.9453 16.776 43.6465C16.7652 45.1105 17.5032 46.3441 19.3968 46.3057C22.8708 46.2349 26.3472 46.2853 29.8236 46.2853Z" fill="#31572C"/>
<path d="M29.8728 9.45243C34.5276 9.46563 38.3292 13.2804 38.3328 17.9412C38.3364 22.6188 34.458 26.4504 29.7384 26.4312C25.128 26.412 21.294 22.53 21.3072 17.8956C21.3216 13.2264 25.1652 9.43803 29.8728 9.45243ZM36.654 17.934C36.6528 14.1216 33.6156 11.0808 29.8068 11.0772C26.046 11.0748 22.9896 14.1324 22.986 17.9004C22.9836 21.7248 26.0064 24.7824 29.8032 24.7932C33.5964 24.8064 36.6552 21.7428 36.654 17.934Z" fill="#31572C"/>
</svg>
