<svg width="34" height="34" viewBox="0 0 34 34" fill="none" xmlns="http://www.w3.org/2000/svg">
<path d="M16.8939 29.0482C15.1055 29.0455 12.7405 28.8272 10.4285 28.1826C9.5057 27.9249 8.60878 27.5992 7.7615 27.1429C7.58878 27.0497 7.50786 26.9491 7.5167 26.7362C7.54186 26.0923 7.49834 25.4436 7.55682 24.8037C7.67582 23.4967 8.25043 22.374 9.08887 21.3846C10.404 19.8336 12.0849 18.8428 14.0263 18.3138C17.1863 17.4515 20.266 17.6718 23.2016 19.1842C24.7248 19.9689 25.9549 21.0861 26.7743 22.6148C27.2517 23.5042 27.4944 24.4542 27.4869 25.4667C27.4835 25.9148 27.4795 26.3629 27.4903 26.811C27.4937 26.9552 27.44 27.0286 27.3203 27.0953C26.3173 27.6563 25.2402 28.0194 24.1332 28.3009C21.9565 28.8538 19.737 29.0489 16.8939 29.0482Z" fill="#31572C"/>
<path d="M11.5709 10.1191C11.5811 6.84352 14.2609 4.17044 17.5181 4.199C20.963 4.22892 23.4858 7.05636 23.4253 10.236C23.3634 13.4803 20.6693 16.1024 17.3808 16.0541C14.2065 16.0079 11.5607 13.3355 11.5709 10.1191Z" fill="#31572C"/>
</svg>
